<svg xmlns="http://www.w3.org/2000/svg" fill="none" viewBox="0 0 40 40">
  <path fill="#0B8989" d="M9.44 2.35C10.8 1.6 12.16.77 13.54 0c5.43 3.13 10.85 6.28 16.28 9.4.02 3.54 0 7.09.01 10.63l-.6-.35v-.8l.47.26v-4.5c-.13-.14-.32-.22-.48-.32v-4.4c.05-.26-.26-.31-.42-.43L14.53 1.26c-.23-.13-.44-.3-.7-.38-.1.04-.19.1-.28.15l-.56.32-.41.24-.52.3-.42.24-.59.34-.14.06.27.19 15.12 8.72v28.23c-.19.1-.39.2-.56.33h-.04c.02-9.2 0-18.39 0-27.58 0-.22.03-.45-.02-.67L10.82 3.16c-.46-.26-.9-.54-1.37-.77l-.01-.04ZM29.22 24.22l.61.35v13.06l-.6.33V24.22Z"/>
  <path fill="#2FE0A0" d="M13.55 1.03c.1-.05.18-.11.28-.15.26.08.47.25.7.38L28.8 9.49c.16.12.47.17.42.43v4.4l-.33-.18c-.02-1.42 0-2.84-.01-4.26C23.77 6.94 18.65 4 13.55 1.03ZM9.4 2.38l.04-.03.01.04c.1.36.27.7.4 1.04 1.3 2.97 2.57 5.95 3.88 8.91l.08-.25.02.36c.04.36.24.67.36 1 .02.65-.05 1.3.04 1.95a2.6 2.6 0 0 0 1.67 1.82l.03.21c.33.87.79 1.7 1.08 2.6-2-1.14-4-2.31-6-3.46-.12-.08-.34-.11-.38.07-.06.29-.03.58-.03.86v10.47c0 .26-.02.52 0 .78 0 .18.2.24.32.33l10.95 6.32c.81.46 1.6.96 2.43 1.38l.85 1.98c.17.4.38.8.5 1.22-5.4-3.13-10.83-6.26-16.25-9.38V2.38Zm1.88 8.67c-.27.15-.4.46-.46.75-.17 1.07.2 2.2.95 2.99.33.32.75.58 1.2.69.18.02.41.04.56-.08.02-.47 0-.94 0-1.4-.34-.19-.67-.4-1.02-.58v.39l.56.34v.87a1.81 1.81 0 0 1-1.48-1 3.3 3.3 0 0 1-.31-1.9c.04-.3.24-.66.6-.66.41.03.77.32 1.04.62.22.2.2.51.25.78l.33.2c0-.25.02-.48 0-.72-.32-.55-.8-1-1.37-1.27-.27-.11-.6-.18-.85-.02Z"/>
  <path fill="#2FE0A0" d="M14.66 14.65c.14.16.23.36.3.56.19.48.44.94.6 1.44a1.6 1.6 0 0 1-.84-.97c-.09-.33-.07-.69-.06-1.03ZM28.88 18.67l.35.2v.81l-.36-.2c.02-.27.02-.54.01-.8ZM28.89 24.03l.33.2v13.73l-.34-.2V24.03Z"/>
  <path fill="#F4F4F4" d="m13 1.35.55-.32c5.1 2.96 10.22 5.9 15.33 8.85l.01 4.26-.63-.37c.04-1.05 0-2.1.02-3.14 0-.14.02-.3-.05-.42-.12-.1-.26-.17-.39-.24l-13.67-7.9c-.38-.25-.83-.42-1.18-.72Z"/>
  <path fill="#F4F4F4" d="m12.06 1.89.52-.3c.6.3 1.15.66 1.73.97L27.9 10.4c.1.06.07.2.1.3 0 .8-.02 1.62 0 2.42 0 .16-.03.31-.08.45-.2-.1-.38-.22-.57-.33.07-.66.01-1.33.04-2-.01-.18.04-.45-.17-.55L12.89 2.43c-.28-.19-.6-.3-.83-.54Z"/>
  <path fill="#F4F4F4" d="m11.05 2.47.59-.34c.22.1.43.23.64.35L23.23 8.8c1.28.76 2.58 1.47 3.85 2.24.01.7.02 1.38 0 2.06-.01 1.52-.03 3.04 0 4.55.02 6.98 0 13.96 0 20.94 0 .1.04.21.1.3l-.1-.04v.4l-.55-.32a1.27 1.27 0 0 1-.06-.34V12.34c0-.32.04-.65-.02-.98-.28-.2-.6-.34-.88-.52L11.05 2.47ZM11.28 11.05c.26-.16.58-.1.85.02.57.26 1.05.72 1.36 1.27.03.24.01.47.01.71a8.4 8.4 0 0 1-.33-.2c-.05-.26-.03-.57-.25-.77-.27-.3-.63-.59-1.05-.62-.35 0-.55.36-.6.66a3.3 3.3 0 0 0 .32 1.9c.3.55.85.98 1.48 1v-.87l-.56-.34v-.39c.35.17.68.4 1.03.58l-.01 1.4c-.15.12-.38.1-.56.07-.45-.1-.87-.36-1.2-.68a3.56 3.56 0 0 1-.95-2.99c.05-.3.19-.6.46-.75Z"/>
  <path fill="#F4F4F4" d="M13.81 12.1c.42.21.83.46 1.24.7l-.02.33-.37-.13v1.65c0 .34-.03.7.06 1.03.12.43.44.78.83.97.2.09.47.19.63 0 .12-.19.1-.42.12-.63v-2.08c-.22-.15-.47-.33-.38-.63.41.21.8.47 1.22.68l.02.36-.39-.14-.01 2.27c-.01.23-.04.5-.23.67-.18.15-.43.11-.63.07a2.6 2.6 0 0 1-1.67-1.82c-.09-.65-.02-1.3-.04-1.95v-.74a89 89 0 0 0-.36-.26l-.02-.36ZM17.2 14.06c.44.2.83.47 1.25.7l-.01.33c-.13-.04-.25-.09-.39-.12.02 1.02 0 2.05 0 3.07.12.12.26.2.38.31v.33c-.41-.23-.83-.46-1.23-.72v-.31l.39.12v-3.09c-.21-.14-.47-.3-.38-.62ZM18.53 14.83c.27.1.51.28.77.42.43.26.9.47 1.25.84.37.38.65.86.8 1.38.12.47.1.96.08 1.43-.02.32-.13.68-.44.83-.34.16-.72 0-1.02-.16l-1.45-.83v-.34l.38.14c0-1.03.02-2.05 0-3.08-.1-.12-.24-.2-.37-.31v-.32Zm.85.88v3.1c.33.17.63.43 1 .5.33.03.55-.28.57-.57.08-.73.05-1.55-.42-2.16-.27-.43-.75-.61-1.15-.87ZM21.63 16.6l2.62 1.51v.93a3.69 3.69 0 0 1-.4-.23l-.03-.53c-.45-.26-.89-.53-1.35-.76v1.24c.42.27.87.51 1.3.77v.4c-.44-.23-.86-.5-1.3-.73-.02.45 0 .9-.01 1.36l.03.05c.45.25.89.53 1.34.77.01-.16.03-.32.06-.47l.38.2v.92c-.9-.46-1.76-1.01-2.65-1.5l-.01-.33.4.11c-.02-1.03 0-2.06 0-3.09l-.39-.28v-.33ZM10.83 16.75c1.42.79 2.81 1.62 4.22 2.42l9.21 5.32v7.19c-2.71-1.55-5.41-3.13-8.12-4.68l-1.5-.87c-1.27-.73-2.53-1.47-3.8-2.18-.02-2.4-.01-4.8 0-7.2Zm1.66 2.68c.12.31.28.62.5.87.07-.16-.08-.29-.14-.42-.11-.15-.15-.4-.36-.45Zm1.58.15c.04.27-.13.66.14.84.01-.24.03-.49 0-.73l-.14-.1Zm-.7.9a7.8 7.8 0 0 0-.6.87c-.04.28.14.54.23.8l.08.22c.12.3.2.62.39.88.26.22.58.35.87.54.17.08.32.22.5.23.2-.13.3-.36.44-.54.1-.17.3-.34.23-.56-.13-.4-.3-.8-.45-1.19-.1-.22-.15-.47-.37-.6l-.01-.02c-.39-.2-.76-.43-1.14-.65l-.16.03Zm-1.52.36.04.16c.18.16.41.29.65.36-.1-.3-.45-.36-.69-.52Zm3.4.65.07.17c.16-.09.53-.14.44-.39-.2-.04-.35.14-.51.22Zm-2.75 1.72c.2.02.63-.16.47-.4-.17.1-.54.14-.47.4Zm3.25-.1c.05.3.45.4.7.5-.1-.3-.45-.36-.7-.5Zm2.38.7-.25-.1a.69.69 0 0 1-.51.3c-.22.48.1 1.03.53 1.28h.04c.3.2.61.36.91.54.19.11.46.27.63.06.13-.25.07-.55.07-.82 0-.6-.39-1.2-.95-1.41-.18-.07-.33.06-.48.15Zm-4.06.24c.03.26-.16.7.14.84-.03-.27.13-.65-.14-.84Zm1.16.17c.17.3.28.63.54.86-.03-.32-.26-.57-.4-.84l-.14-.02Zm4.6 2.07c-.2-.13-.4-.06-.48.15l-.24.01c-.13.1-.11.28-.1.43.05.38.31.72.65.9.36.2.71.42 1.08.61.14.09.4.12.47-.07.09-.24.05-.5.05-.74a1.73 1.73 0 0 0-.34-1c-.23-.26-.54-.52-.92-.44l-.17.15ZM27.36 17.8l.64.36-.02.8v19.71c-.2-.1-.4-.22-.6-.34-.02-6.85 0-13.69-.02-20.53ZM28.3 18.33l.58.34v.8c-.2-.1-.4-.22-.6-.34l.01-.8ZM28.28 24.06c0-.12.02-.24.04-.36l.57.33v14.08l-.61-.35v-13.7Z"/>
  <path fill="#DDDBDC" d="m12.58 1.59.41-.24c.35.3.8.47 1.18.73l13.67 7.89c.13.07.27.14.4.24.06.13.04.28.04.42-.02 1.04.02 2.1-.02 3.14l-.35-.2c.05-.14.09-.3.08-.45-.02-.8 0-1.61 0-2.42-.03-.1 0-.24-.1-.3L14.31 2.56c-.58-.31-1.14-.68-1.73-.97Z"/>
  <path fill="#DDDBDC" d="m11.64 2.13.42-.24c.23.24.55.35.83.54l14.32 8.26c.21.1.16.37.17.56-.03.66.03 1.33-.04 1.99l-.27-.14c.03-.68.02-1.37.01-2.06-1.27-.77-2.57-1.48-3.85-2.24-3.65-2.1-7.3-4.2-10.95-6.32a7.45 7.45 0 0 0-.64-.35ZM27.08 17.65l.28.15c.02 6.84 0 13.68.02 20.53V39l-.2-.1a.63.63 0 0 1-.1-.3c0-6.99.02-13.97 0-20.95ZM28 18.16l.3.17c-.02.27-.03.53-.03.8l-.3-.17.03-.8ZM27.98 23.54l.02-.03.32.2c-.02.11-.04.23-.04.35a15644.28 15644.28 0 0 1 0 14.38l-.3-.17V23.54Z"/>
  <path fill="#1ABA9B" d="M9.45 2.4c.47.22.91.5 1.37.76l14.86 8.59c.05.22.02.45.03.67L25.7 40h-.04v-.02c-.13-.42-.34-.82-.5-1.22l-.86-1.98c.13-.09.24-.2.2-.37V24.53c.03-.15-.11-.23-.21-.3-2.43-1.4-4.86-2.79-7.28-4.2-.3-.9-.75-1.73-1.08-2.6a1.57 1.57 0 0 1-.03-.2c.2.03.45.07.63-.08.19-.17.22-.44.23-.67l.01-2.27.39.14-.02-.36c-.41-.21-.8-.47-1.22-.68-.09.3.16.48.38.63v2.08c-.01.2 0 .44-.12.62-.16.2-.43.1-.63.01-.15-.5-.4-.96-.59-1.44-.07-.2-.16-.4-.3-.56V13l.37.13.02-.33c-.41-.24-.82-.49-1.24-.7l-.08.24c-1.3-2.96-2.57-5.94-3.87-8.9-.14-.35-.31-.69-.4-1.05Zm7.76 6.96-.28.5c-.23-.1-.45-.2-.69-.26.03.36.31.62.46.94-.03.25-.16.53-.05.77.17.15.42.04.63.06.25.21.38.57.7.7 0-.3-.07-.58-.08-.87.15-.09.34-.13.45-.27-.1-.4-.69-.44-.76-.86-.12-.24-.1-.6-.38-.71Zm0 4.7c-.09.31.17.48.39.62l-.01 3.1c-.13-.05-.26-.1-.39-.13v.31c.4.26.82.5 1.24.72l-.01-.33c-.12-.11-.26-.2-.37-.31-.02-1.02 0-2.05 0-3.07.13.03.25.08.38.12v-.33c-.4-.23-.8-.5-1.23-.7Zm1.32.77v.32c.13.1.27.19.38.31v3.08a17.4 17.4 0 0 0-.4-.14l.01.34 1.45.83c.3.17.68.32 1.02.16.3-.15.42-.5.44-.83.02-.47.04-.96-.08-1.43-.15-.52-.43-1-.8-1.38-.36-.37-.82-.58-1.25-.84-.26-.14-.5-.31-.77-.42Zm3.1 1.78v.33l.37.28v3.1l-.39-.12.01.33c.9.49 1.75 1.04 2.65 1.5v-.92a6 6 0 0 0-.38-.2c-.03.15-.05.3-.06.47-.45-.24-.89-.52-1.34-.77l-.03-.05.01-1.36c.44.24.86.5 1.3.73v-.4c-.43-.26-.88-.5-1.3-.77v-1.24c.46.23.9.5 1.35.76 0 .18.02.36.03.53.12.09.26.16.4.23v-.93c-.87-.5-1.74-1.01-2.62-1.5Z"/>
  <path fill="#1ABA9B" d="m13.83 12.45.36.26v.74c-.12-.33-.32-.64-.36-1ZM19.38 15.71c.4.26.88.44 1.15.87.47.6.5 1.43.42 2.16-.02.29-.24.6-.56.56-.38-.06-.68-.32-1.02-.48l.01-3.1Z"/>
  <path fill="#D7D9DA" d="m10.91 2.53.14-.06 14.52 8.37c.29.18.6.32.88.52.06.33.01.66.02.98V38.6c0 .12.02.23.05.34h-.04v.65l-.18-.1V11.44L11.18 2.72l-.27-.19Z"/>
  <path fill="#FFB000" d="M17.2 9.36c.29.1.27.47.39.71.07.42.67.45.76.86-.1.14-.3.18-.45.27.01.29.08.58.08.87-.32-.13-.45-.49-.7-.7-.2-.02-.46.09-.63-.06-.11-.24.02-.52.05-.77-.15-.32-.43-.58-.46-.94.24.06.46.17.69.25l.28-.5ZM30.59 20.47l.01.02v4.52l-.77-.44-.6-.35-.34-.19-.57-.33-.32-.2c.83-1.03 1.76-1.98 2.59-3.03Z"/>
  <path fill="#D1136A" d="m27.07 13.1.27.14.57.33.35.2.63.37.33.18c.16.1.35.18.49.32-.3.26-.52.57-.77.86l-1.86 2.15c-.03-1.51-.01-3.03 0-4.55Z"/>
  <path fill="#F21C73" d="M28.94 15.5c.25-.29.48-.6.77-.86-.02 1.5 0 3-.01 4.5l-.47-.26-.35-.2-.59-.35c-.1-.05-.2-.1-.3-.17l-.63-.36-.28-.15 1.86-2.15Z"/>
  <path fill="#50FFBC" d="M10.63 16.64c.04-.18.26-.15.38-.07 2 1.15 4 2.32 6 3.45 2.42 1.42 4.85 2.8 7.28 4.21.1.07.24.15.21.3V36.4c.04.17-.07.28-.2.37-.83-.42-1.62-.92-2.43-1.38l-10.95-6.32c-.12-.09-.31-.15-.31-.33-.03-.26-.01-.52-.01-.78V17.5c0-.28-.03-.57.03-.86Zm.2.11v12L21.8 35.1c.83.46 1.63.97 2.47 1.4V24.48c-3.08-1.76-6.15-3.54-9.22-5.31-1.4-.8-2.8-1.63-4.22-2.42Z"/>
  <path fill="#FF9406" d="m27.98 18.96.3.17.6.35.34.2.61.35c.25.15.51.28.76.44-.83 1.05-1.76 2-2.59 3.04l-.02.03v-4.58Z"/>
  <path fill="#FFC022" d="M12.49 19.43c.2.05.25.3.36.45.06.13.21.26.15.42-.23-.25-.4-.56-.51-.87ZM13.54 20.46c.38.22.75.45 1.14.65v.02c.07.25.18.49.22.74-.02.21-.19.37-.3.54-.14.18-.24.41-.46.5-.38-.12-.67-.42-1.05-.53h-.01l-.08-.23c.24-.54.36-1.12.54-1.69ZM11.85 20.84c.24.16.6.22.69.52-.24-.07-.46-.2-.65-.36l-.04-.16ZM15.25 21.5c.16-.09.31-.27.51-.23.09.25-.28.3-.44.39l-.07-.17ZM15.75 23.1c.25.15.6.22.7.51-.25-.1-.65-.2-.7-.5ZM15.23 24.22l.13.02c.15.27.38.52.41.84-.26-.23-.37-.57-.54-.86ZM13.45 27.9c.9-.29 1.82-.53 2.69-.9 2.7 1.55 5.4 3.13 8.12 4.68l.01 4.81c-.84-.43-1.64-.94-2.47-1.4l-10.97-6.34c.87-.28 1.75-.55 2.62-.85Z"/>
  <path fill="#FEC32D" d="m14.07 19.58.14.11c.03.24.01.49 0 .73-.27-.18-.1-.57-.14-.84Z"/>
  <path fill="#F9D500" d="m13.38 20.49.16-.03c-.18.57-.3 1.15-.54 1.7-.09-.27-.27-.53-.23-.8.17-.31.39-.6.6-.87Z"/>
  <path fill="#F2B303" d="M14.69 21.13c.22.13.28.38.37.6.14.4.32.79.45 1.19.08.22-.12.4-.23.56-.15.18-.24.41-.43.54-.2 0-.34-.15-.5-.23-.3-.19-.62-.32-.88-.54-.2-.26-.27-.58-.38-.87.38.11.67.41 1.05.53.22-.09.32-.32.47-.5.1-.17.27-.33.29-.54-.04-.25-.15-.49-.21-.74Z"/>
  <path fill="#FEC536" d="M12.5 23.2c-.07-.25.3-.3.47-.4.16.25-.27.43-.47.4Z"/>
  <path fill="#BDE5E1" d="M18.13 23.8c.14-.08.29-.2.47-.14.56.22.95.8.95 1.4-.53.13-1.08.1-1.6.23h-.05c-.42-.25-.75-.8-.53-1.28.2-.02.38-.12.5-.3l.25.1Zm.07.59-.07.2c.22-.13.47-.2.72-.22-.18-.26-.43-.01-.65.02ZM19.83 26.29l.17-.15c.38-.08.69.18.92.44.22.28.33.64.34 1-.4-.02-.8.08-1.2.09-.14-.01-.27.05-.4.11-.34-.18-.6-.52-.65-.9-.01-.15-.03-.33.1-.43l.24-.01c.08-.21.28-.28.48-.15Zm0 .74c.24-.08.49-.15.75-.18-.08-.06-.15-.19-.26-.14-.19.06-.48.06-.5.32Z"/>
  <path fill="#609AEF" d="M10.84 23.95c1.27.7 2.53 1.45 3.8 2.18-.42.06-.83.14-1.24.21a2.17 2.17 0 0 0-.5-.33c-.69-.4-1.37-.8-2.07-1.18v-.88Z"/>
  <path fill="#FEC537" d="M14.07 24.05c.27.2.1.57.14.84-.3-.14-.1-.58-.14-.84Z"/>
  <path fill="#DBF4F2" d="M18.2 24.39c.22-.03.47-.28.65-.02-.25.02-.5.1-.72.22l.07-.2Z"/>
  <path fill="#4378D6" d="M10.83 24.83c.7.37 1.38.78 2.07 1.18.17.09.35.2.5.33-.86.16-1.71.3-2.57.47v-1.98Z"/>
  <path fill="#B1DDD9" d="M17.94 25.29c.53-.13 1.08-.1 1.6-.22.01.27.07.57-.06.82-.17.2-.44.05-.63-.06-.3-.18-.62-.34-.9-.54ZM20.07 27.67c.4 0 .8-.1 1.2-.1-.01.25.03.51-.06.75-.08.19-.33.16-.47.07l-1.08-.6c.13-.06.26-.13.4-.12Z"/>
  <path fill="#FFD527" d="m13.4 26.34 1.23-.21 1.5.87c-.86.37-1.78.61-2.68.9-.87.3-1.75.57-2.62.85v-1.94c.86-.16 1.71-.3 2.57-.47Z"/>
  <path fill="#D9F3F0" d="M19.83 27.03c0-.26.3-.26.49-.32.11-.05.18.08.25.14-.25.03-.5.1-.74.18Z"/>
</svg>